solid ascii
  facet normal 0.000000e+000 1.000000e+000 0.000000e+000
    outer loop
      vertex   2.737500e+001 4.644550e+001 -1.200000e+000
      vertex   2.705000e+001 4.644550e+001 -2.400000e+000
      vertex   2.705000e+001 4.644550e+001 0.000000e+000
    endloop
  endfacet
  facet normal -1.000000e+000 0.000000e+000 0.000000e+000
    outer loop
      vertex   2.705000e+001 4.644550e+001 0.000000e+000
      vertex   2.705000e+001 4.644550e+001 -2.400000e+000
      vertex   2.705000e+001 4.594550e+001 0.000000e+000
    endloop
  endfacet
  facet normal -1.000000e+000 0.000000e+000 0.000000e+000
    outer loop
      vertex   2.705000e+001 4.594550e+001 0.000000e+000
      vertex   2.705000e+001 4.644550e+001 -2.400000e+000
      vertex   2.705000e+001 4.594550e+001 -2.400000e+000
    endloop
  endfacet
  facet normal 1.000000e+000 -0.000000e+000 0.000000e+000
    outer loop
      vertex   3.435000e+001 4.644550e+001 0.000000e+000
      vertex   3.435000e+001 4.594550e+001 0.000000e+000
      vertex   3.435000e+001 4.644550e+001 -2.400000e+000
    endloop
  endfacet
  facet normal 1.000000e+000 0.000000e+000 0.000000e+000
    outer loop
      vertex   3.435000e+001 4.594550e+001 0.000000e+000
      vertex   3.435000e+001 4.594550e+001 -2.400000e+000
      vertex   3.435000e+001 4.644550e+001 -2.400000e+000
    endloop
  endfacet
  facet normal 0.000000e+000 -1.000000e+000 0.000000e+000
    outer loop
      vertex   2.737500e+001 4.594550e+001 -1.200000e+000
      vertex   2.770000e+001 4.594550e+001 -2.400000e+000
      vertex   2.770000e+001 4.594550e+001 0.000000e+000
    endloop
  endfacet
  facet normal 0.000000e+000 -1.000000e+000 0.000000e+000
    outer loop
      vertex   2.737500e+001 4.594550e+001 -1.200000e+000
      vertex   2.705000e+001 4.594550e+001 -2.400000e+000
      vertex   2.770000e+001 4.594550e+001 -2.400000e+000
    endloop
  endfacet
  facet normal 0.000000e+000 -1.000000e+000 0.000000e+000
    outer loop
      vertex   2.737500e+001 4.594550e+001 -1.200000e+000
      vertex   2.705000e+001 4.594550e+001 0.000000e+000
      vertex   2.705000e+001 4.594550e+001 -2.400000e+000
    endloop
  endfacet
  facet normal 0.000000e+000 0.000000e+000 -1.000000e+000
    outer loop
      vertex   3.402500e+001 4.619550e+001 -2.400000e+000
      vertex   3.435000e+001 4.594550e+001 -2.400000e+000
      vertex   3.370000e+001 4.594550e+001 -2.400000e+000
    endloop
  endfacet
  facet normal -1.000000e+000 0.000000e+000 -0.000000e+000
    outer loop
      vertex   3.370000e+001 4.619550e+001 -1.200000e+000
      vertex   3.370000e+001 4.644550e+001 0.000000e+000
      vertex   3.370000e+001 4.644550e+001 -2.400000e+000
    endloop
  endfacet
  facet normal -1.000000e+000 0.000000e+000 0.000000e+000
    outer loop
      vertex   3.370000e+001 4.619550e+001 -1.200000e+000
      vertex   3.370000e+001 4.644550e+001 -2.400000e+000
      vertex   3.370000e+001 4.594550e+001 -2.400000e+000
    endloop
  endfacet
  facet normal -1.000000e+000 0.000000e+000 0.000000e+000
    outer loop
      vertex   3.370000e+001 4.619550e+001 -1.200000e+000
      vertex   3.370000e+001 4.594550e+001 -2.400000e+000
      vertex   3.370000e+001 4.594550e+001 0.000000e+000
    endloop
  endfacet
  facet normal 0.000000e+000 -0.000000e+000 -1.000000e+000
    outer loop
      vertex   2.737500e+001 4.619550e+001 -2.400000e+000
      vertex   2.770000e+001 4.644550e+001 -2.400000e+000
      vertex   2.770000e+001 4.594550e+001 -2.400000e+000
    endloop
  endfacet
  facet normal 0.000000e+000 0.000000e+000 -1.000000e+000
    outer loop
      vertex   2.737500e+001 4.619550e+001 -2.400000e+000
      vertex   2.770000e+001 4.594550e+001 -2.400000e+000
      vertex   2.705000e+001 4.594550e+001 -2.400000e+000
    endloop
  endfacet
  facet normal 0.000000e+000 0.000000e+000 -1.000000e+000
    outer loop
      vertex   2.737500e+001 4.619550e+001 -2.400000e+000
      vertex   2.705000e+001 4.594550e+001 -2.400000e+000
      vertex   2.705000e+001 4.644550e+001 -2.400000e+000
    endloop
  endfacet
  facet normal 0.000000e+000 0.000000e+000 -1.000000e+000
    outer loop
      vertex   2.737500e+001 4.619550e+001 -2.400000e+000
      vertex   2.705000e+001 4.644550e+001 -2.400000e+000
      vertex   2.770000e+001 4.644550e+001 -2.400000e+000
    endloop
  endfacet
  facet normal 0.000000e+000 -1.000000e+000 0.000000e+000
    outer loop
      vertex   3.402500e+001 4.594550e+001 -1.200000e+000
      vertex   3.370000e+001 4.594550e+001 0.000000e+000
      vertex   3.370000e+001 4.594550e+001 -2.400000e+000
    endloop
  endfacet
  facet normal 0.000000e+000 1.000000e+000 0.000000e+000
    outer loop
      vertex   2.737500e+001 4.644550e+001 -1.200000e+000
      vertex   2.770000e+001 4.644550e+001 0.000000e+000
      vertex   2.770000e+001 4.644550e+001 -2.400000e+000
    endloop
  endfacet
  facet normal 0.000000e+000 1.000000e+000 0.000000e+000
    outer loop
      vertex   2.737500e+001 4.644550e+001 -1.200000e+000
      vertex   2.770000e+001 4.644550e+001 -2.400000e+000
      vertex   2.705000e+001 4.644550e+001 -2.400000e+000
    endloop
  endfacet
  facet normal 0.000000e+000 0.000000e+000 -1.000000e+000
    outer loop
      vertex   3.402500e+001 4.619550e+001 -2.400000e+000
      vertex   3.370000e+001 4.644550e+001 -2.400000e+000
      vertex   3.435000e+001 4.644550e+001 -2.400000e+000
    endloop
  endfacet
  facet normal 0.000000e+000 -1.000000e+000 0.000000e+000
    outer loop
      vertex   3.402500e+001 4.594550e+001 -1.200000e+000
      vertex   3.435000e+001 4.594550e+001 -2.400000e+000
      vertex   3.435000e+001 4.594550e+001 0.000000e+000
    endloop
  endfacet
  facet normal 0.000000e+000 1.000000e+000 0.000000e+000
    outer loop
      vertex   3.402500e+001 4.644550e+001 -1.200000e+000
      vertex   3.435000e+001 4.644550e+001 0.000000e+000
      vertex   3.435000e+001 4.644550e+001 -2.400000e+000
    endloop
  endfacet
  facet normal 0.000000e+000 -0.000000e+000 -1.000000e+000
    outer loop
      vertex   3.402500e+001 4.619550e+001 -2.400000e+000
      vertex   3.435000e+001 4.644550e+001 -2.400000e+000
      vertex   3.435000e+001 4.594550e+001 -2.400000e+000
    endloop
  endfacet
  facet normal 0.000000e+000 0.000000e+000 -1.000000e+000
    outer loop
      vertex   3.402500e+001 4.619550e+001 -2.400000e+000
      vertex   3.370000e+001 4.594550e+001 -2.400000e+000
      vertex   3.370000e+001 4.644550e+001 -2.400000e+000
    endloop
  endfacet
  facet normal 1.000000e+000 0.000000e+000 0.000000e+000
    outer loop
      vertex   2.770000e+001 4.619550e+001 -1.200000e+000
      vertex   2.770000e+001 4.594550e+001 0.000000e+000
      vertex   2.770000e+001 4.594550e+001 -2.400000e+000
    endloop
  endfacet
  facet normal 0.000000e+000 -1.000000e+000 0.000000e+000
    outer loop
      vertex   3.402500e+001 4.594550e+001 -1.200000e+000
      vertex   3.370000e+001 4.594550e+001 -2.400000e+000
      vertex   3.435000e+001 4.594550e+001 -2.400000e+000
    endloop
  endfacet
  facet normal 0.000000e+000 1.000000e+000 0.000000e+000
    outer loop
      vertex   3.402500e+001 4.644550e+001 -1.200000e+000
      vertex   3.370000e+001 4.644550e+001 -2.400000e+000
      vertex   3.370000e+001 4.644550e+001 0.000000e+000
    endloop
  endfacet
  facet normal 1.000000e+000 0.000000e+000 -0.000000e+000
    outer loop
      vertex   2.770000e+001 4.619550e+001 -1.200000e+000
      vertex   2.770000e+001 4.644550e+001 -2.400000e+000
      vertex   2.770000e+001 4.644550e+001 0.000000e+000
    endloop
  endfacet
  facet normal 1.000000e+000 0.000000e+000 0.000000e+000
    outer loop
      vertex   2.770000e+001 4.619550e+001 -1.200000e+000
      vertex   2.770000e+001 4.594550e+001 -2.400000e+000
      vertex   2.770000e+001 4.644550e+001 -2.400000e+000
    endloop
  endfacet
  facet normal 0.000000e+000 1.000000e+000 0.000000e+000
    outer loop
      vertex   3.402500e+001 4.644550e+001 -1.200000e+000
      vertex   3.435000e+001 4.644550e+001 -2.400000e+000
      vertex   3.370000e+001 4.644550e+001 -2.400000e+000
    endloop
  endfacet
  facet normal -0.000000e+000 1.000000e+000 0.000000e+000
    outer loop
      vertex   2.737500e+001 4.644550e+001 -1.200000e+000
      vertex   2.705000e+001 4.644550e+001 0.000000e+000
      vertex   2.770000e+001 4.644550e+001 0.000000e+000
    endloop
  endfacet
  facet normal 1.000000e+000 0.000000e+000 0.000000e+000
    outer loop
      vertex   2.770000e+001 4.619550e+001 -1.200000e+000
      vertex   2.770000e+001 4.644550e+001 0.000000e+000
      vertex   2.770000e+001 4.594550e+001 0.000000e+000
    endloop
  endfacet
  facet normal -0.000000e+000 -1.000000e+000 0.000000e+000
    outer loop
      vertex   2.737500e+001 4.594550e+001 -1.200000e+000
      vertex   2.770000e+001 4.594550e+001 0.000000e+000
      vertex   2.705000e+001 4.594550e+001 0.000000e+000
    endloop
  endfacet
  facet normal -0.000000e+000 -1.000000e+000 0.000000e+000
    outer loop
      vertex   3.402500e+001 4.594550e+001 -1.200000e+000
      vertex   3.435000e+001 4.594550e+001 0.000000e+000
      vertex   3.370000e+001 4.594550e+001 0.000000e+000
    endloop
  endfacet
  facet normal -1.000000e+000 0.000000e+000 0.000000e+000
    outer loop
      vertex   3.370000e+001 4.619550e+001 -1.200000e+000
      vertex   3.370000e+001 4.594550e+001 0.000000e+000
      vertex   3.370000e+001 4.644550e+001 0.000000e+000
    endloop
  endfacet
  facet normal -0.000000e+000 1.000000e+000 0.000000e+000
    outer loop
      vertex   3.402500e+001 4.644550e+001 -1.200000e+000
      vertex   3.370000e+001 4.644550e+001 0.000000e+000
      vertex   3.435000e+001 4.644550e+001 0.000000e+000
    endloop
  endfacet
  facet normal 0.000000e+000 -1.000000e+000 0.000000e+000
    outer loop
      vertex   2.737500e+001 4.569550e+001 7.973129e-001
      vertex   2.705000e+001 4.569550e+001 1.594626e+000
      vertex   2.705000e+001 4.569550e+001 0.000000e+000
    endloop
  endfacet
  facet normal 0.000000e+000 -1.000000e+000 0.000000e+000
    outer loop
      vertex   2.737500e+001 4.569550e+001 7.973129e-001
      vertex   2.705000e+001 4.569550e+001 0.000000e+000
      vertex   2.770000e+001 4.569550e+001 0.000000e+000
    endloop
  endfacet
  facet normal 0.000000e+000 -1.000000e+000 0.000000e+000
    outer loop
      vertex   2.737500e+001 4.569550e+001 7.973129e-001
      vertex   2.770000e+001 4.569550e+001 0.000000e+000
      vertex   2.770000e+001 4.569550e+001 1.594626e+000
    endloop
  endfacet
  facet normal 0.000000e+000 1.000000e+000 0.000000e+000
    outer loop
      vertex   3.070000e+001 4.790000e+001 1.900000e+000
      vertex   3.370000e+001 4.790000e+001 3.800000e+000
      vertex   3.370000e+001 4.790000e+001 0.000000e+000
    endloop
  endfacet
  facet normal 0.000000e+000 -1.000000e+000 0.000000e+000
    outer loop
      vertex   3.402500e+001 4.569550e+001 7.973129e-001
      vertex   3.435000e+001 4.569550e+001 0.000000e+000
      vertex   3.435000e+001 4.569550e+001 1.594626e+000
    endloop
  endfacet
  facet normal 1.000000e+000 0.000000e+000 0.000000e+000
    outer loop
      vertex   3.370000e+001 4.790000e+001 0.000000e+000
      vertex   3.370000e+001 4.669550e+001 1.594626e+000
      vertex   3.370000e+001 4.669550e+001 0.000000e+000
    endloop
  endfacet
  facet normal 0.000000e+000 -1.000000e+000 0.000000e+000
    outer loop
      vertex   3.402500e+001 4.569550e+001 7.973129e-001
      vertex   3.370000e+001 4.569550e+001 1.594626e+000
      vertex   3.370000e+001 4.569550e+001 0.000000e+000
    endloop
  endfacet
  facet normal 0.000000e+000 -1.000000e+000 0.000000e+000
    outer loop
      vertex   3.402500e+001 4.569550e+001 7.973129e-001
      vertex   3.370000e+001 4.569550e+001 0.000000e+000
      vertex   3.435000e+001 4.569550e+001 0.000000e+000
    endloop
  endfacet
  facet normal 0.000000e+000 0.000000e+000 -1.000000e+000
    outer loop
      vertex   2.770000e+001 4.569550e+001 0.000000e+000
      vertex   2.705000e+001 4.569550e+001 0.000000e+000
      vertex   2.705000e+001 4.594550e+001 0.000000e+000
    endloop
  endfacet
  facet normal -1.000000e+000 0.000000e+000 0.000000e+000
    outer loop
      vertex   2.705000e+001 4.669550e+001 1.594626e+000
      vertex   2.705000e+001 4.669550e+001 0.000000e+000
      vertex   2.705000e+001 4.569550e+001 1.594626e+000
    endloop
  endfacet
  facet normal -1.000000e+000 0.000000e+000 0.000000e+000
    outer loop
      vertex   2.705000e+001 4.569550e+001 1.594626e+000
      vertex   2.705000e+001 4.594550e+001 0.000000e+000
      vertex   2.705000e+001 4.569550e+001 0.000000e+000
    endloop
  endfacet
  facet normal -1.000000e+000 0.000000e+000 0.000000e+000
    outer loop
      vertex   2.705000e+001 4.569550e+001 1.594626e+000
      vertex   2.705000e+001 4.644550e+001 0.000000e+000
      vertex   2.705000e+001 4.594550e+001 0.000000e+000
    endloop
  endfacet
  facet normal -1.000000e+000 0.000000e+000 0.000000e+000
    outer loop
      vertex   2.705000e+001 4.569550e+001 1.594626e+000
      vertex   2.705000e+001 4.669550e+001 0.000000e+000
      vertex   2.705000e+001 4.644550e+001 0.000000e+000
    endloop
  endfacet
  facet normal 1.000000e+000 -0.000000e+000 0.000000e+000
    outer loop
      vertex   3.435000e+001 4.669550e+001 1.594626e+000
      vertex   3.435000e+001 4.569550e+001 1.594626e+000
      vertex   3.435000e+001 4.669550e+001 0.000000e+000
    endloop
  endfacet
  facet normal 1.000000e+000 0.000000e+000 0.000000e+000
    outer loop
      vertex   3.435000e+001 4.569550e+001 1.594626e+000
      vertex   3.435000e+001 4.569550e+001 0.000000e+000
      vertex   3.435000e+001 4.594550e+001 0.000000e+000
    endloop
  endfacet
  facet normal 1.000000e+000 0.000000e+000 -0.000000e+000
    outer loop
      vertex   3.435000e+001 4.569550e+001 1.594626e+000
      vertex   3.435000e+001 4.594550e+001 0.000000e+000
      vertex   3.435000e+001 4.644550e+001 0.000000e+000
    endloop
  endfacet
  facet normal 1.000000e+000 0.000000e+000 -0.000000e+000
    outer loop
      vertex   3.435000e+001 4.569550e+001 1.594626e+000
      vertex   3.435000e+001 4.644550e+001 0.000000e+000
      vertex   3.435000e+001 4.669550e+001 0.000000e+000
    endloop
  endfacet
  facet normal 0.000000e+000 0.000000e+000 -1.000000e+000
    outer loop
      vertex   3.370000e+001 4.790000e+001 0.000000e+000
      vertex   3.370000e+001 4.669550e+001 0.000000e+000
      vertex   2.770000e+001 4.790000e+001 0.000000e+000
    endloop
  endfacet
  facet normal 0.000000e+000 0.000000e+000 -1.000000e+000
    outer loop
      vertex   3.435000e+001 4.669550e+001 0.000000e+000
      vertex   3.435000e+001 4.644550e+001 0.000000e+000
      vertex   3.370000e+001 4.669550e+001 0.000000e+000
    endloop
  endfacet
  facet normal 0.000000e+000 0.000000e+000 -1.000000e+000
    outer loop
      vertex   3.435000e+001 4.644550e+001 0.000000e+000
      vertex   3.370000e+001 4.644550e+001 0.000000e+000
      vertex   3.370000e+001 4.669550e+001 0.000000e+000
    endloop
  endfacet
  facet normal 0.000000e+000 0.000000e+000 -1.000000e+000
    outer loop
      vertex   3.370000e+001 4.669550e+001 0.000000e+000
      vertex   3.370000e+001 4.644550e+001 0.000000e+000
      vertex   2.770000e+001 4.790000e+001 0.000000e+000
    endloop
  endfacet
  facet normal 0.000000e+000 0.000000e+000 -1.000000e+000
    outer loop
      vertex   3.435000e+001 4.594550e+001 0.000000e+000
      vertex   3.435000e+001 4.569550e+001 0.000000e+000
      vertex   3.370000e+001 4.594550e+001 0.000000e+000
    endloop
  endfacet
  facet normal 0.000000e+000 0.000000e+000 -1.000000e+000
    outer loop
      vertex   3.370000e+001 4.644550e+001 0.000000e+000
      vertex   3.370000e+001 4.594550e+001 0.000000e+000
      vertex   2.770000e+001 4.790000e+001 0.000000e+000
    endloop
  endfacet
  facet normal 0.000000e+000 0.000000e+000 -1.000000e+000
    outer loop
      vertex   3.435000e+001 4.569550e+001 0.000000e+000
      vertex   3.370000e+001 4.569550e+001 0.000000e+000
      vertex   3.370000e+001 4.594550e+001 0.000000e+000
    endloop
  endfacet
  facet normal 0.000000e+000 0.000000e+000 -1.000000e+000
    outer loop
      vertex   3.370000e+001 4.594550e+001 0.000000e+000
      vertex   3.370000e+001 4.569550e+001 0.000000e+000
      vertex   2.770000e+001 4.790000e+001 0.000000e+000
    endloop
  endfacet
  facet normal 0.000000e+000 0.000000e+000 -1.000000e+000
    outer loop
      vertex   3.370000e+001 4.569550e+001 0.000000e+000
      vertex   3.370000e+001 4.450000e+001 0.000000e+000
      vertex   2.770000e+001 4.790000e+001 0.000000e+000
    endloop
  endfacet
  facet normal 0.000000e+000 0.000000e+000 -1.000000e+000
    outer loop
      vertex   3.370000e+001 4.450000e+001 0.000000e+000
      vertex   2.770000e+001 4.450000e+001 0.000000e+000
      vertex   2.770000e+001 4.569550e+001 0.000000e+000
    endloop
  endfacet
  facet normal 0.000000e+000 0.000000e+000 -1.000000e+000
    outer loop
      vertex   3.370000e+001 4.450000e+001 0.000000e+000
      vertex   2.770000e+001 4.569550e+001 0.000000e+000
      vertex   2.770000e+001 4.594550e+001 0.000000e+000
    endloop
  endfacet
  facet normal 0.000000e+000 1.000000e+000 0.000000e+000
    outer loop
      vertex   3.070000e+001 4.790000e+001 1.900000e+000
      vertex   3.370000e+001 4.790000e+001 0.000000e+000
      vertex   2.770000e+001 4.790000e+001 0.000000e+000
    endloop
  endfacet
  facet normal 0.000000e+000 1.000000e+000 0.000000e+000
    outer loop
      vertex   3.070000e+001 4.790000e+001 1.900000e+000
      vertex   2.770000e+001 4.790000e+001 0.000000e+000
      vertex   2.770000e+001 4.790000e+001 3.800000e+000
    endloop
  endfacet
  facet normal 0.000000e+000 0.000000e+000 -1.000000e+000
    outer loop
      vertex   3.370000e+001 4.450000e+001 0.000000e+000
      vertex   2.770000e+001 4.594550e+001 0.000000e+000
      vertex   2.770000e+001 4.644550e+001 0.000000e+000
    endloop
  endfacet
  facet normal 0.000000e+000 1.000000e+000 0.000000e+000
    outer loop
      vertex   2.737500e+001 4.669550e+001 7.973129e-001
      vertex   2.770000e+001 4.669550e+001 1.594626e+000
      vertex   2.770000e+001 4.669550e+001 0.000000e+000
    endloop
  endfacet
  facet normal 0.000000e+000 1.000000e+000 0.000000e+000
    outer loop
      vertex   2.737500e+001 4.669550e+001 7.973129e-001
      vertex   2.770000e+001 4.669550e+001 0.000000e+000
      vertex   2.705000e+001 4.669550e+001 0.000000e+000
    endloop
  endfacet
  facet normal 0.000000e+000 1.000000e+000 0.000000e+000
    outer loop
      vertex   2.737500e+001 4.669550e+001 7.973129e-001
      vertex   2.705000e+001 4.669550e+001 0.000000e+000
      vertex   2.705000e+001 4.669550e+001 1.594626e+000
    endloop
  endfacet
  facet normal 0.000000e+000 0.000000e+000 -1.000000e+000
    outer loop
      vertex   2.770000e+001 4.644550e+001 0.000000e+000
      vertex   2.705000e+001 4.644550e+001 0.000000e+000
      vertex   2.705000e+001 4.669550e+001 0.000000e+000
    endloop
  endfacet
  facet normal 0.000000e+000 0.000000e+000 -1.000000e+000
    outer loop
      vertex   2.770000e+001 4.594550e+001 0.000000e+000
      vertex   2.770000e+001 4.569550e+001 0.000000e+000
      vertex   2.705000e+001 4.594550e+001 0.000000e+000
    endloop
  endfacet
  facet normal -1.000000e+000 -0.000000e+000 0.000000e+000
    outer loop
      vertex   2.770000e+001 4.450000e+001 3.800000e+000
      vertex   2.770000e+001 4.569550e+001 1.594626e+000
      vertex   2.770000e+001 4.450000e+001 0.000000e+000
    endloop
  endfacet
  facet normal 0.000000e+000 1.000000e+000 0.000000e+000
    outer loop
      vertex   3.402500e+001 4.669550e+001 7.973129e-001
      vertex   3.435000e+001 4.669550e+001 1.594626e+000
      vertex   3.435000e+001 4.669550e+001 0.000000e+000
    endloop
  endfacet
  facet normal 0.000000e+000 1.000000e+000 0.000000e+000
    outer loop
      vertex   3.402500e+001 4.669550e+001 7.973129e-001
      vertex   3.435000e+001 4.669550e+001 0.000000e+000
      vertex   3.370000e+001 4.669550e+001 0.000000e+000
    endloop
  endfacet
  facet normal 0.000000e+000 1.000000e+000 0.000000e+000
    outer loop
      vertex   3.402500e+001 4.669550e+001 7.973129e-001
      vertex   3.370000e+001 4.669550e+001 0.000000e+000
      vertex   3.370000e+001 4.669550e+001 1.594626e+000
    endloop
  endfacet
  facet normal 0.000000e+000 -1.000000e+000 0.000000e+000
    outer loop
      vertex   3.070000e+001 4.450000e+001 1.900000e+000
      vertex   2.770000e+001 4.450000e+001 0.000000e+000
      vertex   3.370000e+001 4.450000e+001 0.000000e+000
    endloop
  endfacet
  facet normal 0.000000e+000 -1.000000e+000 0.000000e+000
    outer loop
      vertex   3.070000e+001 4.450000e+001 1.900000e+000
      vertex   3.370000e+001 4.450000e+001 0.000000e+000
      vertex   3.370000e+001 4.450000e+001 3.800000e+000
    endloop
  endfacet
  facet normal 0.000000e+000 0.000000e+000 -1.000000e+000
    outer loop
      vertex   3.370000e+001 4.450000e+001 0.000000e+000
      vertex   2.770000e+001 4.644550e+001 0.000000e+000
      vertex   2.770000e+001 4.669550e+001 0.000000e+000
    endloop
  endfacet
  facet normal 0.000000e+000 -1.000000e+000 0.000000e+000
    outer loop
      vertex   3.070000e+001 4.450000e+001 1.900000e+000
      vertex   2.770000e+001 4.450000e+001 3.800000e+000
      vertex   2.770000e+001 4.450000e+001 0.000000e+000
    endloop
  endfacet
  facet normal 0.000000e+000 0.000000e+000 -1.000000e+000
    outer loop
      vertex   3.370000e+001 4.450000e+001 0.000000e+000
      vertex   2.770000e+001 4.669550e+001 0.000000e+000
      vertex   2.770000e+001 4.790000e+001 0.000000e+000
    endloop
  endfacet
  facet normal -1.000000e+000 0.000000e+000 0.000000e+000
    outer loop
      vertex   2.770000e+001 4.569550e+001 1.594626e+000
      vertex   2.770000e+001 4.569550e+001 0.000000e+000
      vertex   2.770000e+001 4.450000e+001 0.000000e+000
    endloop
  endfacet
  facet normal 0.000000e+000 0.000000e+000 -1.000000e+000
    outer loop
      vertex   2.770000e+001 4.669550e+001 0.000000e+000
      vertex   2.770000e+001 4.644550e+001 0.000000e+000
      vertex   2.705000e+001 4.669550e+001 0.000000e+000
    endloop
  endfacet
  facet normal -1.000000e+000 0.000000e+000 0.000000e+000
    outer loop
      vertex   2.770000e+001 4.790000e+001 3.800000e+000
      vertex   2.770000e+001 4.790000e+001 0.000000e+000
      vertex   2.770000e+001 4.669550e+001 1.594626e+000
    endloop
  endfacet
  facet normal 1.000000e+000 0.000000e+000 0.000000e+000
    outer loop
      vertex   3.370000e+001 4.569550e+001 1.594626e+000
      vertex   3.370000e+001 4.450000e+001 0.000000e+000
      vertex   3.370000e+001 4.569550e+001 0.000000e+000
    endloop
  endfacet
  facet normal 1.000000e+000 0.000000e+000 0.000000e+000
    outer loop
      vertex   3.370000e+001 4.450000e+001 3.800000e+000
      vertex   3.370000e+001 4.450000e+001 0.000000e+000
      vertex   3.370000e+001 4.569550e+001 1.594626e+000
    endloop
  endfacet
  facet normal -1.000000e+000 0.000000e+000 0.000000e+000
    outer loop
      vertex   2.770000e+001 4.790000e+001 0.000000e+000
      vertex   2.770000e+001 4.669550e+001 0.000000e+000
      vertex   2.770000e+001 4.669550e+001 1.594626e+000
    endloop
  endfacet
  facet normal 1.000000e+000 -0.000000e+000 0.000000e+000
    outer loop
      vertex   3.370000e+001 4.790000e+001 3.800000e+000
      vertex   3.370000e+001 4.669550e+001 1.594626e+000
      vertex   3.370000e+001 4.790000e+001 0.000000e+000
    endloop
  endfacet
  facet normal -0.000000e+000 -1.000000e+000 0.000000e+000
    outer loop
      vertex   3.402500e+001 4.569550e+001 7.973129e-001
      vertex   3.435000e+001 4.569550e+001 1.594626e+000
      vertex   3.370000e+001 4.569550e+001 1.594626e+000
    endloop
  endfacet
  facet normal -0.000000e+000 1.000000e+000 0.000000e+000
    outer loop
      vertex   3.402500e+001 4.669550e+001 7.973129e-001
      vertex   3.370000e+001 4.669550e+001 1.594626e+000
      vertex   3.435000e+001 4.669550e+001 1.594626e+000
    endloop
  endfacet
  facet normal -0.000000e+000 1.000000e+000 0.000000e+000
    outer loop
      vertex   2.737500e+001 4.669550e+001 7.973129e-001
      vertex   2.705000e+001 4.669550e+001 1.594626e+000
      vertex   2.770000e+001 4.669550e+001 1.594626e+000
    endloop
  endfacet
  facet normal -0.000000e+000 -1.000000e+000 0.000000e+000
    outer loop
      vertex   2.737500e+001 4.569550e+001 7.973129e-001
      vertex   2.770000e+001 4.569550e+001 1.594626e+000
      vertex   2.705000e+001 4.569550e+001 1.594626e+000
    endloop
  endfacet
  facet normal 1.000000e+000 0.000000e+000 0.000000e+000
    outer loop
      vertex   3.370000e+001 4.669550e+001 1.594626e+000
      vertex   3.370000e+001 4.450000e+001 3.800000e+000
      vertex   3.370000e+001 4.569550e+001 1.594626e+000
    endloop
  endfacet
  facet normal 0.000000e+000 0.000000e+000 1.000000e+000
    outer loop
      vertex   3.402500e+001 4.619550e+001 1.594626e+000
      vertex   3.435000e+001 4.669550e+001 1.594626e+000
      vertex   3.370000e+001 4.669550e+001 1.594626e+000
    endloop
  endfacet
  facet normal -1.000000e+000 0.000000e+000 0.000000e+000
    outer loop
      vertex   2.770000e+001 4.790000e+001 3.800000e+000
      vertex   2.770000e+001 4.669550e+001 1.594626e+000
      vertex   2.770000e+001 4.450000e+001 3.800000e+000
    endloop
  endfacet
  facet normal 0.000000e+000 0.000000e+000 1.000000e+000
    outer loop
      vertex   2.737500e+001 4.619550e+001 1.594626e+000
      vertex   2.705000e+001 4.569550e+001 1.594626e+000
      vertex   2.770000e+001 4.569550e+001 1.594626e+000
    endloop
  endfacet
  facet normal 0.000000e+000 -0.000000e+000 1.000000e+000
    outer loop
      vertex   3.402500e+001 4.619550e+001 1.594626e+000
      vertex   3.435000e+001 4.569550e+001 1.594626e+000
      vertex   3.435000e+001 4.669550e+001 1.594626e+000
    endloop
  endfacet
  facet normal -1.000000e+000 0.000000e+000 0.000000e+000
    outer loop
      vertex   2.770000e+001 4.669550e+001 1.594626e+000
      vertex   2.770000e+001 4.569550e+001 1.594626e+000
      vertex   2.770000e+001 4.450000e+001 3.800000e+000
    endloop
  endfacet
  facet normal 0.000000e+000 0.000000e+000 1.000000e+000
    outer loop
      vertex   3.402500e+001 4.619550e+001 1.594626e+000
      vertex   3.370000e+001 4.569550e+001 1.594626e+000
      vertex   3.435000e+001 4.569550e+001 1.594626e+000
    endloop
  endfacet
  facet normal 1.000000e+000 -0.000000e+000 0.000000e+000
    outer loop
      vertex   3.370000e+001 4.790000e+001 3.800000e+000
      vertex   3.370000e+001 4.450000e+001 3.800000e+000
      vertex   3.370000e+001 4.669550e+001 1.594626e+000
    endloop
  endfacet
  facet normal 0.000000e+000 0.000000e+000 1.000000e+000
    outer loop
      vertex   2.737500e+001 4.619550e+001 1.594626e+000
      vertex   2.705000e+001 4.669550e+001 1.594626e+000
      vertex   2.705000e+001 4.569550e+001 1.594626e+000
    endloop
  endfacet
  facet normal 0.000000e+000 0.000000e+000 1.000000e+000
    outer loop
      vertex   2.737500e+001 4.619550e+001 1.594626e+000
      vertex   2.770000e+001 4.669550e+001 1.594626e+000
      vertex   2.705000e+001 4.669550e+001 1.594626e+000
    endloop
  endfacet
  facet normal 0.000000e+000 0.000000e+000 1.000000e+000
    outer loop
      vertex   3.402500e+001 4.619550e+001 1.594626e+000
      vertex   3.370000e+001 4.669550e+001 1.594626e+000
      vertex   3.370000e+001 4.569550e+001 1.594626e+000
    endloop
  endfacet
  facet normal 0.000000e+000 -0.000000e+000 1.000000e+000
    outer loop
      vertex   2.737500e+001 4.619550e+001 1.594626e+000
      vertex   2.770000e+001 4.569550e+001 1.594626e+000
      vertex   2.770000e+001 4.669550e+001 1.594626e+000
    endloop
  endfacet
  facet normal -0.000000e+000 -1.000000e+000 0.000000e+000
    outer loop
      vertex   3.070000e+001 4.450000e+001 1.900000e+000
      vertex   3.370000e+001 4.450000e+001 3.800000e+000
      vertex   2.770000e+001 4.450000e+001 3.800000e+000
    endloop
  endfacet
  facet normal -0.000000e+000 1.000000e+000 0.000000e+000
    outer loop
      vertex   3.070000e+001 4.790000e+001 1.900000e+000
      vertex   2.770000e+001 4.790000e+001 3.800000e+000
      vertex   3.370000e+001 4.790000e+001 3.800000e+000
    endloop
  endfacet
  facet normal -0.000000e+000 0.000000e+000 1.000000e+000
    outer loop
      vertex   3.370000e+001 4.790000e+001 3.800000e+000
      vertex   2.770000e+001 4.790000e+001 3.800000e+000
      vertex   3.210000e+001 4.692000e+001 3.800000e+000
    endloop
  endfacet
  facet normal 0.000000e+000 -1.000000e+000 0.000000e+000
    outer loop
      vertex   3.070000e+001 4.548000e+001 4.400000e+000
      vertex   2.930000e+001 4.548000e+001 3.800000e+000
      vertex   3.210000e+001 4.548000e+001 3.800000e+000
    endloop
  endfacet
  facet normal 0.000000e+000 0.000000e+000 1.000000e+000
    outer loop
      vertex   3.370000e+001 4.450000e+001 3.800000e+000
      vertex   3.210000e+001 4.548000e+001 3.800000e+000
      vertex   2.770000e+001 4.450000e+001 3.800000e+000
    endloop
  endfacet
  facet normal -0.000000e+000 0.000000e+000 1.000000e+000
    outer loop
      vertex   3.210000e+001 4.548000e+001 3.800000e+000
      vertex   2.930000e+001 4.548000e+001 3.800000e+000
      vertex   2.770000e+001 4.450000e+001 3.800000e+000
    endloop
  endfacet
  facet normal 0.000000e+000 0.000000e+000 1.000000e+000
    outer loop
      vertex   3.210000e+001 4.692000e+001 3.800000e+000
      vertex   2.770000e+001 4.790000e+001 3.800000e+000
      vertex   2.930000e+001 4.692000e+001 3.800000e+000
    endloop
  endfacet
  facet normal -0.000000e+000 0.000000e+000 1.000000e+000
    outer loop
      vertex   3.370000e+001 4.790000e+001 3.800000e+000
      vertex   3.210000e+001 4.692000e+001 3.800000e+000
      vertex   3.370000e+001 4.450000e+001 3.800000e+000
    endloop
  endfacet
  facet normal 0.000000e+000 0.000000e+000 1.000000e+000
    outer loop
      vertex   2.930000e+001 4.692000e+001 3.800000e+000
      vertex   2.770000e+001 4.790000e+001 3.800000e+000
      vertex   2.930000e+001 4.548000e+001 3.800000e+000
    endloop
  endfacet
  facet normal 0.000000e+000 0.000000e+000 1.000000e+000
    outer loop
      vertex   2.930000e+001 4.548000e+001 3.800000e+000
      vertex   2.770000e+001 4.790000e+001 3.800000e+000
      vertex   2.770000e+001 4.450000e+001 3.800000e+000
    endloop
  endfacet
  facet normal 1.000000e+000 0.000000e+000 -0.000000e+000
    outer loop
      vertex   3.210000e+001 4.620000e+001 4.400000e+000
      vertex   3.210000e+001 4.692000e+001 3.800000e+000
      vertex   3.210000e+001 4.692000e+001 5.000000e+000
    endloop
  endfacet
  facet normal 1.000000e+000 0.000000e+000 0.000000e+000
    outer loop
      vertex   3.210000e+001 4.620000e+001 4.400000e+000
      vertex   3.210000e+001 4.548000e+001 5.000000e+000
      vertex   3.210000e+001 4.548000e+001 3.800000e+000
    endloop
  endfacet
  facet normal -1.000000e+000 0.000000e+000 -0.000000e+000
    outer loop
      vertex   2.930000e+001 4.620000e+001 4.400000e+000
      vertex   2.930000e+001 4.692000e+001 5.000000e+000
      vertex   2.930000e+001 4.692000e+001 3.800000e+000
    endloop
  endfacet
  facet normal 0.000000e+000 0.000000e+000 1.000000e+000
    outer loop
      vertex   3.370000e+001 4.450000e+001 3.800000e+000
      vertex   3.210000e+001 4.692000e+001 3.800000e+000
      vertex   3.210000e+001 4.548000e+001 3.800000e+000
    endloop
  endfacet
  facet normal 1.000000e+000 0.000000e+000 0.000000e+000
    outer loop
      vertex   3.210000e+001 4.620000e+001 4.400000e+000
      vertex   3.210000e+001 4.548000e+001 3.800000e+000
      vertex   3.210000e+001 4.692000e+001 3.800000e+000
    endloop
  endfacet
  facet normal 0.000000e+000 1.000000e+000 0.000000e+000
    outer loop
      vertex   3.070000e+001 4.692000e+001 4.400000e+000
      vertex   3.210000e+001 4.692000e+001 5.000000e+000
      vertex   3.210000e+001 4.692000e+001 3.800000e+000
    endloop
  endfacet
  facet normal -1.000000e+000 0.000000e+000 0.000000e+000
    outer loop
      vertex   2.930000e+001 4.620000e+001 4.400000e+000
      vertex   2.930000e+001 4.548000e+001 3.800000e+000
      vertex   2.930000e+001 4.548000e+001 5.000000e+000
    endloop
  endfacet
  facet normal 0.000000e+000 1.000000e+000 0.000000e+000
    outer loop
      vertex   3.070000e+001 4.692000e+001 4.400000e+000
      vertex   2.930000e+001 4.692000e+001 3.800000e+000
      vertex   2.930000e+001 4.692000e+001 5.000000e+000
    endloop
  endfacet
  facet normal 0.000000e+000 -1.000000e+000 0.000000e+000
    outer loop
      vertex   3.070000e+001 4.548000e+001 4.400000e+000
      vertex   2.930000e+001 4.548000e+001 5.000000e+000
      vertex   2.930000e+001 4.548000e+001 3.800000e+000
    endloop
  endfacet
  facet normal 0.000000e+000 1.000000e+000 0.000000e+000
    outer loop
      vertex   3.070000e+001 4.692000e+001 4.400000e+000
      vertex   3.210000e+001 4.692000e+001 3.800000e+000
      vertex   2.930000e+001 4.692000e+001 3.800000e+000
    endloop
  endfacet
  facet normal 0.000000e+000 -1.000000e+000 0.000000e+000
    outer loop
      vertex   3.070000e+001 4.548000e+001 4.400000e+000
      vertex   3.210000e+001 4.548000e+001 3.800000e+000
      vertex   3.210000e+001 4.548000e+001 5.000000e+000
    endloop
  endfacet
  facet normal -1.000000e+000 0.000000e+000 0.000000e+000
    outer loop
      vertex   2.930000e+001 4.620000e+001 4.400000e+000
      vertex   2.930000e+001 4.692000e+001 3.800000e+000
      vertex   2.930000e+001 4.548000e+001 3.800000e+000
    endloop
  endfacet
  facet normal -1.000000e+000 0.000000e+000 0.000000e+000
    outer loop
      vertex   2.930000e+001 4.620000e+001 4.400000e+000
      vertex   2.930000e+001 4.548000e+001 5.000000e+000
      vertex   2.930000e+001 4.692000e+001 5.000000e+000
    endloop
  endfacet
  facet normal 1.000000e+000 0.000000e+000 0.000000e+000
    outer loop
      vertex   3.210000e+001 4.620000e+001 4.400000e+000
      vertex   3.210000e+001 4.692000e+001 5.000000e+000
      vertex   3.210000e+001 4.548000e+001 5.000000e+000
    endloop
  endfacet
  facet normal -0.000000e+000 1.000000e+000 0.000000e+000
    outer loop
      vertex   3.070000e+001 4.692000e+001 4.400000e+000
      vertex   2.930000e+001 4.692000e+001 5.000000e+000
      vertex   3.210000e+001 4.692000e+001 5.000000e+000
    endloop
  endfacet
  facet normal -0.000000e+000 -1.000000e+000 0.000000e+000
    outer loop
      vertex   3.070000e+001 4.548000e+001 4.400000e+000
      vertex   3.210000e+001 4.548000e+001 5.000000e+000
      vertex   2.930000e+001 4.548000e+001 5.000000e+000
    endloop
  endfacet
  facet normal 0.000000e+000 0.000000e+000 1.000000e+000
    outer loop
      vertex   3.070000e+001 4.620000e+001 5.000000e+000
      vertex   3.210000e+001 4.692000e+001 5.000000e+000
      vertex   2.930000e+001 4.692000e+001 5.000000e+000
    endloop
  endfacet
  facet normal 0.000000e+000 0.000000e+000 1.000000e+000
    outer loop
      vertex   3.070000e+001 4.620000e+001 5.000000e+000
      vertex   2.930000e+001 4.692000e+001 5.000000e+000
      vertex   2.930000e+001 4.548000e+001 5.000000e+000
    endloop
  endfacet
  facet normal 0.000000e+000 0.000000e+000 1.000000e+000
    outer loop
      vertex   3.070000e+001 4.620000e+001 5.000000e+000
      vertex   2.930000e+001 4.548000e+001 5.000000e+000
      vertex   3.210000e+001 4.548000e+001 5.000000e+000
    endloop
  endfacet
  facet normal 0.000000e+000 -0.000000e+000 1.000000e+000
    outer loop
      vertex   3.070000e+001 4.620000e+001 5.000000e+000
      vertex   3.210000e+001 4.548000e+001 5.000000e+000
      vertex   3.210000e+001 4.692000e+001 5.000000e+000
    endloop
  endfacet
endsolid
